<svg width="42" height="42" viewBox="0 0 42 42" fill="none" xmlns="http://www.w3.org/2000/svg">
<path d="M21.0047 41.9996C19.6033 41.9992 18.2055 41.8585 16.8321 41.5799C15.7589 41.3612 14.8167 40.7256 14.2119 39.8125C13.6071 38.8994 13.3891 37.7837 13.6065 36.7103C13.8238 35.6368 14.4587 34.6935 15.3711 34.0876C16.2834 33.4817 17.3987 33.2625 18.4724 33.4785C21.2692 34.0449 24.1749 33.6556 26.7239 32.373C29.273 31.0905 31.3176 28.989 32.5295 26.4056C33.7414 23.8222 34.051 20.9068 33.4078 18.1267C32.7645 15.3466 31.206 12.8629 28.9825 11.0743C26.7591 9.28571 23.9993 8.29583 21.146 8.26315C18.2926 8.23047 15.511 9.15709 13.2472 10.8943C10.9834 12.6315 9.36889 15.0787 8.66218 17.8433C7.95547 20.608 8.19752 23.5295 9.34994 26.14C9.56956 26.6366 9.68911 27.1717 9.70189 27.7145C9.71467 28.2574 9.62021 28.7976 9.4242 29.304C9.22819 29.8103 8.9346 30.273 8.55966 30.6658C8.18473 31.0585 7.73577 31.3735 7.23904 31.5929C6.7423 31.8122 6.2078 31.9316 5.66494 31.944C5.12209 31.9564 4.58177 31.8618 4.07551 31.6655C3.56925 31.4692 3.10706 31.1749 2.71452 30.7998C2.32199 30.4246 2.00682 29.9756 1.78783 29.4787C-0.0394204 25.3384 -0.480249 20.7187 0.530972 16.3076C1.54219 11.8964 3.95141 7.93004 7.39968 4.99913C10.8479 2.06821 15.1507 0.329533 19.6671 0.0423407C24.1836 -0.244852 28.6724 0.934718 32.4641 3.40525C36.2558 5.87579 39.1481 9.50517 40.7099 13.7527C42.2718 18.0002 42.4194 22.6387 41.1313 26.9771C39.8432 31.3155 37.1878 35.1217 33.5611 37.8287C29.9345 40.5357 25.5303 41.9986 21.0047 41.9996Z" fill="#FAFAFA"/>
<path d="M21.7695 31.5903C21.4496 31.5899 21.142 31.4661 20.9114 31.2444C20.6808 31.0227 20.5451 30.7205 20.532 30.4008C20.519 30.0812 20.6302 29.7691 20.842 29.5294C21.0538 29.2897 21.3498 29.1409 21.6686 29.1145C22.7795 29.0236 23.86 28.7072 24.8442 28.1842C25.8285 27.6612 26.6957 26.9427 27.3927 26.0729C27.5977 25.8172 27.8959 25.653 28.2217 25.6164C28.5474 25.5798 28.8739 25.6737 29.1306 25.8775C29.3874 26.0814 29.5533 26.3786 29.5916 26.7041C29.6298 27.0297 29.5374 27.357 29.3349 27.6147C28.4269 28.7495 27.2969 29.6873 26.0139 30.3702C24.731 31.0531 23.3221 31.4668 21.8736 31.5863C21.8389 31.5887 21.8042 31.5903 21.7695 31.5903Z" fill="#FAFAFA"/>
</svg>
