<svg width="36" height="10" viewBox="0 0 36 10" fill="none" xmlns="http://www.w3.org/2000/svg">
<path d="M18.2765 0.13626C18.6849 0.0908935 19.0965 0.113577 19.5066 0.109948C20.4144 0.139436 21.3221 0.429326 22.0586 0.972816C22.7651 1.47819 23.3205 2.20723 23.6011 3.03743C23.7428 3.48066 23.8329 3.94476 23.8297 4.41203C23.8288 4.74456 23.8293 5.07709 23.8293 5.40963C23.8544 6.29518 23.6208 7.19841 23.1188 7.92971C22.484 8.87971 21.4669 9.55115 20.3588 9.77932C19.7814 9.92356 19.1834 9.88821 18.5949 9.88545C17.7063 9.83649 16.8202 9.54933 16.1011 9.01123C15.5385 8.60841 15.0835 8.05809 14.7751 7.43568C14.4757 6.80919 14.3322 6.10737 14.3596 5.4119C14.3753 4.74139 14.2995 4.05772 14.4788 3.40263C14.815 1.91462 16.0375 0.715133 17.4742 0.304568C17.7373 0.230168 18.0049 0.170738 18.2765 0.13626ZM18.3649 2.21948C17.6104 2.3583 16.9707 2.93672 16.7094 3.66122C16.5238 4.09991 16.5835 4.58488 16.574 5.04852C16.5816 5.41326 16.5418 5.78753 16.6444 6.1432C16.7452 6.48479 16.9111 6.81007 17.146 7.0773C17.5432 7.54093 18.1394 7.82584 18.7472 7.82678C19.2381 7.82082 19.7523 7.87617 20.2154 7.67338C20.9304 7.39443 21.4579 6.7089 21.5933 5.95176C21.6529 5.47269 21.6094 4.98773 21.6234 4.50594C21.6655 3.5664 21.054 2.63957 20.179 2.32019C19.7675 2.15007 19.3152 2.18454 18.8804 2.18137C18.7078 2.17774 18.5352 2.19226 18.3649 2.21948Z" fill="#2463EB"/>
<path d="M1.08148 0.116886C1.59655 0.0977246 2.11348 0.114548 2.62948 0.10894C2.74476 0.10193 2.85911 0.150068 2.9329 0.2412C3.08184 0.359906 3.02512 0.569277 3.04725 0.735656C3.05048 3.63414 3.04725 6.53312 3.04864 9.43204C3.07585 9.66994 2.86972 9.91015 2.62993 9.89003C2.13561 9.88909 1.64082 9.89241 1.1465 9.88865C1.00401 9.89705 0.889653 9.7938 0.813106 9.68348C0.742554 9.56525 0.767454 9.42132 0.762843 9.29C0.763765 6.37653 0.763765 3.46309 0.762843 0.54965C0.743937 0.351962 0.893802 0.158947 1.08148 0.116886Z" fill="#2463EB"/>
<path d="M4.67603 0.552861C4.65194 0.317339 4.87152 0.0902287 5.11093 0.108454C5.60108 0.108921 6.09076 0.108921 6.58091 0.108454C6.81937 0.0902287 7.04131 0.316405 7.01723 0.552395C7.01581 1.60617 7.01723 2.66041 7.01628 3.71419C8.14252 3.71419 9.26874 3.71372 10.3954 3.71466C10.3987 3.47026 10.3878 3.22538 10.402 2.98145C10.3874 2.17068 10.3997 1.3599 10.3954 0.549123C10.3741 0.317339 10.5871 0.0953681 10.8218 0.10892C11.328 0.109387 11.8342 0.107519 12.3399 0.109856C12.5647 0.11079 12.7578 0.331359 12.7361 0.551927C12.7347 3.52586 12.7361 6.50028 12.7352 9.47423C12.7484 9.70316 12.5265 9.91441 12.2946 9.88915C11.804 9.88915 11.3138 9.88915 10.8232 9.88915C10.6008 9.90695 10.393 9.7046 10.3973 9.48589C10.3954 8.73585 10.3916 7.98537 10.3997 7.23533C10.3907 6.77553 10.3968 6.31521 10.3963 5.85539C9.27062 5.85258 8.14484 5.85866 7.01864 5.85258C7.01298 7.06056 7.01911 8.26903 7.01581 9.47749C7.02525 9.6873 6.8359 9.89009 6.62246 9.88821C6.11815 9.89103 5.61335 9.88827 5.10904 9.88915C4.88332 9.90883 4.66989 9.70366 4.67697 9.48075C4.67556 6.50491 4.67744 3.52914 4.67603 0.552861Z" fill="#2463EB"/>
<path d="M28.8207 0.107422C29.8482 0.113887 30.8758 0.108345 31.9037 0.110193C31.9014 1.21529 31.9143 2.32039 31.8973 3.4255C31.1907 3.61345 30.5271 3.93533 29.9046 4.31447C28.9957 4.87972 28.1774 5.61769 27.6099 6.53206C26.901 6.53162 26.1917 6.53206 25.4828 6.53162C25.4809 5.50408 25.4883 4.4761 25.4782 3.44812C26.5893 3.40887 27.7031 3.45274 28.8151 3.42642C28.8198 2.31993 28.8087 1.21345 28.8207 0.107422Z" fill="#FFC312"/>
<path d="M32.2874 3.64593C32.4496 3.57158 32.6056 3.45567 32.7927 3.46306C33.6077 3.46814 34.4233 3.46398 35.2389 3.46629C35.2361 4.49796 35.2366 5.5301 35.2389 6.56221C34.1273 6.56315 33.0157 6.56221 31.9046 6.56271C31.9065 7.67012 31.9093 8.77754 31.9037 9.88539C31.2286 9.90294 30.5201 9.902 29.9036 9.58844C29.4377 9.36541 29.0479 8.95945 28.9135 8.45288C28.7043 7.71168 28.9556 6.9266 29.3342 6.28423C30.0223 5.1311 31.1029 4.2532 32.2874 3.64593Z" fill="#FFC312"/>
</svg>
