<svg width="48" height="48" viewBox="0 0 48 48" fill="none" xmlns="http://www.w3.org/2000/svg">
<path d="M24.0054 48C22.4038 47.9995 20.8063 47.8387 19.2367 47.5203C18.0102 47.2704 16.9333 46.5439 16.2421 45.5003C15.5509 44.4568 15.3018 43.1818 15.5502 41.955C15.7986 40.7281 16.5242 39.6501 17.5669 38.9576C18.6096 38.2651 19.8842 38.0146 21.1113 38.2615C24.3076 38.9088 27.6284 38.4639 30.5416 36.9981C33.4548 35.5322 35.7915 33.1306 37.1766 30.1781C38.5616 27.2256 38.9154 23.8937 38.1803 20.7164C37.4452 17.5391 35.6639 14.7006 33.1229 12.6565C30.5818 10.6123 27.4278 9.48103 24.1668 9.44368C20.9058 9.40634 17.7269 10.4653 15.1397 12.4508C12.5525 14.4362 10.7073 17.2329 9.89964 20.3926C9.09196 23.5522 9.3686 26.8911 10.6856 29.8746C10.9366 30.4421 11.0733 31.0536 11.0879 31.674C11.1025 32.2944 10.9945 32.9118 10.7705 33.4905C10.5465 34.0693 10.211 34.598 9.78247 35.0469C9.35397 35.4958 8.84089 35.8558 8.27319 36.1064C7.70549 36.3571 7.09462 36.4935 6.47422 36.5077C5.85382 36.522 5.23631 36.4138 4.65773 36.1895C4.07914 35.9651 3.55092 35.6288 3.10231 35.2C2.65371 34.7712 2.29351 34.2581 2.04323 33.6903C-0.0450519 28.9585 -0.548856 23.6788 0.606826 18.6374C1.76251 13.596 4.5159 9.06298 8.45677 5.71334C12.3976 2.36369 17.3151 0.376612 22.4767 0.0483897C27.6384 -0.279833 32.7684 1.06826 37.1018 3.89175C41.4352 6.71524 44.7407 10.8631 46.5257 15.7175C48.3106 20.5719 48.4793 25.8731 47.0072 30.8313C45.5351 35.7895 42.5004 40.1394 38.3556 43.2332C34.2108 46.3269 29.1774 47.9988 24.0054 48Z" fill="#2463EB"/>
<path d="M24.8795 36.1036C24.5139 36.1031 24.1624 35.9616 23.8988 35.7083C23.6353 35.4549 23.4801 35.1095 23.4652 34.7442C23.4503 34.3789 23.5774 34.0222 23.8195 33.7483C24.0616 33.4743 24.3998 33.3043 24.7642 33.2741C26.0337 33.1702 27.2686 32.8086 28.3935 32.2109C29.5183 31.6131 30.5094 30.7919 31.3059 29.7979C31.5403 29.5056 31.8811 29.3181 32.2534 29.2762C32.6257 29.2343 32.9988 29.3417 33.2922 29.5747C33.5856 29.8076 33.7753 30.1473 33.819 30.5194C33.8626 30.8914 33.7571 31.2654 33.5256 31.56C32.4879 32.857 31.1965 33.9287 29.7302 34.7091C28.264 35.4896 26.6539 35.9624 24.9985 36.099C24.9588 36.1017 24.9192 36.1036 24.8795 36.1036Z" fill="#2463EB"/>
</svg>
